<?xml version="1.0" encoding="utf-8"?>
<!-- Generator: Adobe Illustrator 21.1.0, SVG Export Plug-In . SVG Version: 6.00 Build 0)  -->
<svg version="1.1" id="Слой_1" xmlns="http://www.w3.org/2000/svg" xmlns:xlink="http://www.w3.org/1999/xlink" x="0px" y="0px"
	 viewBox="0 0 124.5 54.2" style="enable-background:new 0 0 124.5 54.2;" xml:space="preserve">
<style type="text/css">
	.st0{fill:#FFFFFF;}
</style>
<path class="st0" d="M8.9,35.4V20.8h5.6v-1.5H1.6v1.5h5.5v14.6H8.9z M19.3,35.4v-7.2h4.9l5.1,7.2h2L26.1,28c2.4-0.4,3.8-2,3.8-4.3
	c0-2.6-1.9-4.4-5.1-4.4h-7.2v16.1H19.3z M19.3,20.8h5.4c2.2,0,3.5,1.1,3.5,2.9c0,1.8-1.3,2.9-3.5,2.9h-5.4V20.8z M36.3,35.4V19.3
	h-1.7v16.1H36.3z M42.7,35.4v-7.1h5.1c3.2,0,5.2-1.8,5.2-4.5c0-2.7-1.9-4.5-5.2-4.5H41v16.1H42.7z M42.7,20.8h4.9
	c2.3,0,3.6,1.1,3.6,3c0,1.9-1.3,2.9-3.6,2.9h-4.9V20.8z M63.9,35.7c1.9,0,3.5-0.5,4.9-1.4v-1.8c-1.3,1.1-2.9,1.6-4.8,1.6
	c-1.9,0-3.5-0.6-4.7-1.9s-1.9-2.9-1.9-4.8c0-1.9,0.6-3.5,1.9-4.8c1.3-1.3,2.8-1.9,4.7-1.9c1.6,0,3.1,0.5,4.5,1.4v-1.7
	c-1.3-0.8-2.8-1.2-4.5-1.2c-2.4,0-4.3,0.8-5.9,2.4c-1.6,1.6-2.3,3.5-2.3,6c0,2.4,0.8,4.4,2.3,6C59.5,34.9,61.5,35.7,63.9,35.7z
	 M73.6,21.4C72,23,71.3,25,71.3,27.3c0,2.4,0.8,4.4,2.3,6c1.5,1.6,3.5,2.4,5.8,2.4c2.3,0,4.2-0.8,5.8-2.4c1.5-1.6,2.3-3.6,2.3-6
	c0-2.4-0.8-4.3-2.3-5.9S81.7,19,79.4,19C77,19,75.1,19.8,73.6,21.4z M74.8,32.1c-1.2-1.3-1.8-2.9-1.8-4.8c0-1.9,0.6-3.5,1.8-4.8
	c1.2-1.3,2.7-1.9,4.5-1.9s3.3,0.6,4.5,1.9c1.2,1.3,1.8,2.9,1.8,4.8c0,1.9-0.6,3.5-1.8,4.8c-1.2,1.3-2.7,1.9-4.5,1.9
	S76,33.4,74.8,32.1z M93,21.4c-1.5,1.6-2.3,3.6-2.3,5.9c0,2.4,0.8,4.4,2.3,6c1.5,1.6,3.5,2.4,5.8,2.4c2.3,0,4.2-0.8,5.8-2.4
	c1.5-1.6,2.3-3.6,2.3-6c0-2.4-0.8-4.3-2.3-5.9s-3.4-2.4-5.8-2.4C96.5,19,94.5,19.8,93,21.4z M94.3,32.1c-1.2-1.3-1.8-2.9-1.8-4.8
	c0-1.9,0.6-3.5,1.8-4.8c1.2-1.3,2.7-1.9,4.5-1.9s3.3,0.6,4.5,1.9c1.2,1.3,1.8,2.9,1.8,4.8c0,1.9-0.6,3.5-1.8,4.8
	c-1.2,1.3-2.7,1.9-4.5,1.9S95.5,33.4,94.3,32.1z M112.5,35.4v-7.1h5.1c3.2,0,5.2-1.8,5.2-4.5c0-2.7-1.9-4.5-5.2-4.5h-6.8v16.1H112.5
	z M112.5,20.8h4.9c2.3,0,3.6,1.1,3.6,3c0,1.9-1.3,2.9-3.6,2.9h-4.9V20.8z"/>
<path class="st0" d="M15.3,8.8c31.9-9.1,58.7-9.1,91.8,0l10.5,3.1c0.7,0.2,1.1,1,0.9,1.8l0,0c-0.2,0.7-1,1-1.6,0.8
	c-41.8-13.3-72-13.3-111.2,0c-0.7,0.2-1.4-0.2-1.6-0.9l0,0c-0.2-0.7,0.2-1.5,0.9-1.7L15.3,8.8z"/>
<path class="st0" d="M15.3,46c31.9,9.1,58.7,9.1,91.8,0l10.5-3.1c0.7-0.2,1.1-1,0.9-1.8l0,0c-0.2-0.7-1-1-1.6-0.8
	c-41.8,13.3-72,13.3-111.2,0c-0.7-0.2-1.4,0.2-1.6,0.9l0,0c-0.2,0.7,0.2,1.5,0.9,1.7L15.3,46z"/>
</svg>
